<svg width="117" height="24" viewBox="0 0 117 24" fill="none" xmlns="http://www.w3.org/2000/svg">
<path d="M23.9082 0H28.4455V10.2769H28.506C29.0303 9.55897 29.6957 9.05641 30.5024 8.76923C31.3292 8.46154 32.2164 8.30769 33.1642 8.30769C34.2128 8.30769 35.1505 8.53333 35.9773 8.98461C36.8041 9.41538 37.4998 10 38.0645 10.7385C38.6493 11.4769 39.0929 12.3282 39.3954 13.2923C39.7181 14.2359 39.8794 15.2308 39.8794 16.2769C39.8794 17.4051 39.708 18.441 39.3652 19.3846C39.0223 20.3282 38.5283 21.1487 37.883 21.8461C37.2579 22.5231 36.5016 23.0564 35.6144 23.4461C34.7271 23.8154 33.739 24 32.65 24C32.1257 24 31.6316 23.9282 31.1678 23.7846C30.704 23.641 30.2705 23.4564 29.8671 23.2308C29.484 23.0051 29.1412 22.759 28.8387 22.4923C28.5564 22.2051 28.3245 21.9282 28.143 21.6615H28.0825V23.85H23.9082V0ZM28.0825 16.1538C28.0825 17.282 28.3951 18.1949 29.0202 18.8923C29.6655 19.5897 30.5629 19.9385 31.7123 19.9385C32.8617 19.9385 33.749 19.5897 34.3742 18.8923C35.0195 18.1949 35.3421 17.282 35.3421 16.1538C35.3421 15.0256 35.0195 14.1128 34.3742 13.4154C33.749 12.7179 32.8617 12.3692 31.7123 12.3692C30.5629 12.3692 29.6655 12.7179 29.0202 13.4154C28.3951 14.1128 28.0825 15.0256 28.0825 16.1538Z" fill="#343440"/>
<path d="M56.7545 23.85H52.5802V21.6615H52.5197C52.3382 21.9282 52.0962 22.2051 51.7937 22.4923C51.5114 22.759 51.1686 23.0051 50.7653 23.2308C50.3821 23.4564 49.9486 23.641 49.4646 23.7846C49.0008 23.9282 48.5168 24 48.0127 24C46.9237 24 45.9356 23.8154 45.0483 23.4461C44.161 23.0564 43.3947 22.5231 42.7494 21.8461C42.1243 21.1487 41.6403 20.3282 41.2975 19.3846C40.9547 18.441 40.7833 17.4051 40.7833 16.2769C40.7833 15.2308 40.9345 14.2359 41.237 13.2923C41.5597 12.3282 42.0033 11.4769 42.568 10.7385C43.1528 10 43.8586 9.41538 44.6853 8.98461C45.5121 8.53333 46.4498 8.30769 47.4985 8.30769C48.4462 8.30769 49.3234 8.46154 50.1301 8.76923C50.9569 9.05641 51.6324 9.55897 52.1567 10.2769H52.2172V0H56.7545V23.85ZM52.5802 16.1538C52.5802 15.0256 52.2575 14.1128 51.6122 13.4154C50.9871 12.7179 50.0998 12.3692 48.9504 12.3692C47.8009 12.3692 46.9036 12.7179 46.2583 13.4154C45.6331 14.1128 45.3206 15.0256 45.3206 16.1538C45.3206 17.282 45.6331 18.1949 46.2583 18.8923C46.9036 19.5897 47.8009 19.9385 48.9504 19.9385C50.0998 19.9385 50.9871 19.5897 51.6122 18.8923C52.2575 18.1949 52.5802 17.282 52.5802 16.1538Z" fill="#343440"/>
<path d="M60.7437 12.3692H57.7491V8.67692H60.7437V6.03077C60.7437 5.21025 60.8143 4.44102 60.9555 3.72308C61.0966 2.98461 61.3689 2.33846 61.7722 1.78461C62.1755 1.23077 62.7502 0.799999 63.4963 0.492307C64.2626 0.164103 65.2608 0 66.4909 0C66.9548 0 67.4085 0.0205127 67.8521 0.0615378C68.2958 0.102563 68.7293 0.174357 69.1528 0.276922L68.9411 4.18461C68.6789 4.08205 68.4369 4.01026 68.2151 3.96923C67.9933 3.90769 67.7412 3.87692 67.4589 3.87692C66.7329 3.87692 66.1885 4.04102 65.8255 4.36923C65.4625 4.67692 65.281 5.32308 65.281 6.30769V8.67692H68.6386V12.3692H65.281V23.85H60.7437V12.3692Z" fill="#343440"/>
<path d="M78.3821 21.7538H78.3216C77.8175 22.5538 77.1419 23.1282 76.295 23.4769C75.4682 23.8256 74.591 24 73.6634 24C72.9777 24 72.3123 23.8974 71.667 23.6923C71.0418 23.5077 70.4873 23.2205 70.0033 22.8308C69.5193 22.441 69.1362 21.959 68.8539 21.3846C68.5715 20.8103 68.4304 20.1436 68.4304 19.3846C68.4304 18.5231 68.5816 17.7949 68.8841 17.2C69.2068 16.6051 69.6302 16.1128 70.1545 15.7231C70.699 15.3333 71.3141 15.0359 71.9997 14.8308C72.6853 14.6051 73.3911 14.441 74.1171 14.3385C74.8632 14.2359 75.5993 14.1744 76.3252 14.1538C77.0714 14.1333 77.757 14.1231 78.3821 14.1231C78.3821 13.3026 78.0897 12.6564 77.5049 12.1846C76.9403 11.6923 76.2647 11.4462 75.4783 11.4462C74.7321 11.4462 74.0465 11.6103 73.4214 11.9385C72.8164 12.2462 72.2719 12.6769 71.788 13.2308L69.3681 10.7077C70.215 9.90769 71.2032 9.31282 72.3324 8.92308C73.4617 8.51282 74.6313 8.30769 75.8413 8.30769C77.1722 8.30769 78.2611 8.48205 79.1081 8.83077C79.9752 9.15897 80.6608 9.65128 81.165 10.3077C81.6893 10.9641 82.0523 11.7744 82.2539 12.7385C82.4556 13.682 82.5564 14.7795 82.5564 16.0308V23.85H78.3821V21.7538ZM77.2629 17.0769C76.9201 17.0769 76.4866 17.0974 75.9623 17.1385C75.4581 17.159 74.9641 17.241 74.4801 17.3846C74.0163 17.5282 73.613 17.7436 73.2701 18.0308C72.9475 18.3179 72.7862 18.7179 72.7862 19.2308C72.7862 19.7846 73.0181 20.1949 73.4819 20.4615C73.9457 20.7282 74.4297 20.8615 74.9338 20.8615C75.3774 20.8615 75.8009 20.8 76.2042 20.6769C76.6277 20.5538 77.0008 20.3795 77.3234 20.1538C77.6461 19.9282 77.8982 19.641 78.0796 19.2923C78.2813 18.9436 78.3821 18.5333 78.3821 18.0615V17.0769H77.2629Z" fill="#343440"/>
<path d="M84.1931 8.67692H88.7304V11.0769H88.7909C89.2749 10.1538 89.8496 9.46667 90.5151 9.01538C91.1805 8.54359 92.0174 8.30769 93.0257 8.30769C93.2878 8.30769 93.55 8.31795 93.8121 8.33846C94.0743 8.35897 94.3163 8.4 94.5381 8.46154V12.6769C94.2155 12.5744 93.8928 12.5026 93.5702 12.4615C93.2677 12.4 92.945 12.3692 92.6022 12.3692C91.7351 12.3692 91.0495 12.4923 90.5453 12.7385C90.0412 12.9846 89.6479 13.3333 89.3656 13.7846C89.1035 14.2154 88.9321 14.7385 88.8514 15.3538C88.7707 15.9692 88.7304 16.6462 88.7304 17.3846V23.85H84.1931V8.67692Z" fill="#343440"/>
<path d="M108.684 21.0462C107.958 21.9897 107.04 22.7179 105.931 23.2308C104.822 23.7436 103.673 24 102.483 24C101.354 24 100.285 23.8154 99.2765 23.4461C98.2884 23.0769 97.4212 22.5538 96.6751 21.8769C95.9492 21.1795 95.3744 20.3487 94.951 19.3846C94.5275 18.4205 94.3157 17.3436 94.3157 16.1538C94.3157 14.9641 94.5275 13.8872 94.951 12.9231C95.3744 11.959 95.9492 11.1385 96.6751 10.4615C97.4212 9.7641 98.2884 9.23077 99.2765 8.86154C100.285 8.49231 101.354 8.30769 102.483 8.30769C103.531 8.30769 104.479 8.49231 105.326 8.86154C106.193 9.23077 106.919 9.7641 107.504 10.4615C108.109 11.1385 108.573 11.959 108.895 12.9231C109.218 13.8872 109.379 14.9641 109.379 16.1538V17.6H98.853C99.0345 18.482 99.4277 19.1897 100.033 19.7231C100.638 20.2359 101.384 20.4923 102.271 20.4923C103.017 20.4923 103.642 20.3282 104.146 20C104.671 19.6513 105.125 19.2103 105.508 18.6769L108.684 21.0462ZM104.842 14.4615C104.862 13.682 104.61 13.0154 104.086 12.4615C103.562 11.9077 102.886 11.6308 102.059 11.6308C101.555 11.6308 101.112 11.7128 100.728 11.8769C100.345 12.041 100.013 12.2564 99.7302 12.5231C99.4681 12.7692 99.2563 13.0667 99.095 13.4154C98.9538 13.7436 98.8732 14.0923 98.853 14.4615H104.842Z" fill="#343440"/>
<path d="M110.392 8.9449H109.379V8.25H112.188V8.9449H111.175V11.8151H110.392V8.9449Z" fill="#343440"/>
<path d="M112.987 8.25H114.17L114.988 10.5764H114.998L115.821 8.25H117V11.8151H116.217V9.08085H116.207L115.274 11.8151H114.677L113.779 9.08085H113.769V11.8151H112.987V8.25Z" fill="#343440"/>
<path d="M16.0352 14.5806C16.2419 15.396 16.2137 18.9295 12.0938 18.9998V12.0312C14.2124 12.3546 15.4245 13.648 16.0352 14.5806Z" fill="url(#paint0_linear_6096_88417)"/>
<path d="M16.3685 15.2436C16.3685 15.2436 16.1853 14.7749 16.035 14.5781C16.3638 16.8463 13.2022 19.1707 7.95013 15.2061C7.69645 15.0139 7.45686 14.7984 7.22667 14.5687C7.20788 14.5547 7.19379 14.5359 7.175 14.5219C7.175 14.5219 7.1656 14.5125 7.16091 14.5078C7.16091 14.5078 1.30281 18.9504 4.82143 23.1072C11.6332 26.2329 18.1912 20.5485 16.3685 15.2436Z" fill="url(#paint1_linear_6096_88417)"/>
<path d="M12.0849 0.0046863L4.82214 7.24971L2.6142 9.45227L2.30885 9.75688C-0.448731 12.6483 -0.735294 17.0253 1.44446 20.2261C1.73572 20.6572 2.07396 21.0649 2.45918 21.4492C2.90076 21.8897 3.37993 22.2693 3.88729 22.5927C4.18795 22.7848 4.5027 22.9582 4.82214 23.1082C2.32294 18.7405 7.17102 14.5135 7.17102 14.5135L10.9245 10.7738L13.1137 8.58999L16.7356 4.97685V0L12.0849 0.0046863Z" fill="#F76641"/>
<defs>
<linearGradient id="paint0_linear_6096_88417" x1="12.639" y1="12.3142" x2="14.7898" y2="19.1008" gradientUnits="userSpaceOnUse">
<stop offset="0.3359" stop-color="#F76641"/>
<stop offset="0.4489" stop-color="#EC5C41"/>
<stop offset="0.6466" stop-color="#CF4340"/>
<stop offset="0.8548" stop-color="#AA223F"/>
</linearGradient>
<linearGradient id="paint1_linear_6096_88417" x1="3.69629" y1="19.2534" x2="16.6772" y2="19.2534" gradientUnits="userSpaceOnUse">
<stop stop-color="#AA223F"/>
<stop offset="0.3547" stop-color="#CF4340"/>
<stop offset="0.6915" stop-color="#EC5C41"/>
<stop offset="0.884" stop-color="#F76641"/>
</linearGradient>
</defs>
</svg>
